<svg width="116" height="51" viewBox="0 0 116 51" fill="none" xmlns="http://www.w3.org/2000/svg">
<path d="M14.3489 17.1272H14.3274L11.0853 39.2855L7.84312 17.1272H0.414062V50.1285H5.28804V25.136L8.93815 50.1285V50.15H8.95962H13.1895H13.2324L16.8825 25.136V50.1285H21.7565V17.1272H14.3489Z" fill="#155BFB"/>
<path d="M27.4922 42.0768V25.2004C27.4922 20.0688 30.0902 17.1272 34.8783 17.1272C39.6664 17.1272 42.2644 20.0688 42.2644 25.2004V42.0768C42.2644 47.2084 39.6664 50.15 34.8783 50.15C30.0902 50.15 27.4922 47.2084 27.4922 42.0768ZM37.3904 42.3774V24.8783C37.3904 22.5809 36.4242 21.722 34.8783 21.722C33.3324 21.722 32.3662 22.6024 32.3662 24.8783V42.3774C32.3662 44.6748 33.3324 45.5337 34.8783 45.5337C36.4242 45.5551 37.3904 44.6748 37.3904 42.3774Z" fill="#155BFB"/>
<path d="M47.9922 42.0768V40.2518H52.8447V42.4418C52.8447 44.7393 53.8753 45.5552 55.5071 45.5552C57.1389 45.5552 58.1696 44.7393 58.1696 42.3559C58.1696 39.6935 57.1389 37.9973 53.768 35.1201C49.4737 31.4056 48.0566 28.7861 48.0566 25.136C48.0566 20.0903 50.719 17.1702 55.7218 17.1702C60.7246 17.1702 63.1938 20.1117 63.1938 25.2434V26.5746H58.3413V24.9213C58.3413 22.6239 57.3966 21.765 55.7648 21.765C54.133 21.765 53.1882 22.6453 53.1882 24.8354C53.1882 27.1758 54.2618 28.872 57.6328 31.7491C61.927 35.4637 63.2797 38.0188 63.2797 42.0124C63.2797 47.2299 60.5743 50.1715 55.5286 50.1715C50.5043 50.1285 47.9922 47.2084 47.9922 42.0768Z" fill="#155BFB"/>
<path d="M96.5378 25.6727C96.5378 25.6727 96.9672 24.9856 96.5378 24.1053L95.271 21.5287C95.2495 19.0381 95.2281 15.8603 95.1851 13.7776C94.6698 13.2838 94.6054 12.7685 94.6054 12.7685V7.18594C94.5195 5.89767 93.5104 1.30282 92.7589 0.637207C92.0074 1.28134 90.9982 5.87619 90.9123 7.18594V12.7685C90.9123 12.7685 90.8479 13.2838 90.3326 13.7776C90.2897 15.8389 90.2682 19.0381 90.2467 21.5287L88.9799 24.1053C88.5505 24.9856 88.9799 25.6727 88.9799 25.6727H90.2897C90.3756 26.4027 90.4185 27.7769 90.44 29.151L89.5382 30.654C89.4308 30.9761 89.4738 31.1264 89.5382 31.3626L90.4614 31.6417C90.4614 31.792 90.4614 31.9638 90.4614 32.0926H90.6332H90.8909H92.3938H92.7374H93.0809H94.5839H94.8416H95.0133C95.0133 31.9423 95.0133 31.792 95.0133 31.6417L95.9366 31.3626C96.001 31.1264 96.044 30.9976 95.9366 30.654L95.0348 29.151C95.0563 27.7769 95.1207 26.4027 95.1851 25.6727H96.5378V25.6727Z" fill="#155BFB"/>
<path d="M90.6793 36.1721H89.9922V43.9662H90.6793V36.1721Z" fill="#155BFB"/>
<path d="M93.1051 34.0894H92.418V42.2484H93.1051V34.0894Z" fill="#155BFB"/>
<path d="M95.5113 36.1721H94.8242V43.9662H95.5113V36.1721Z" fill="#155BFB"/>
<path d="M79.2145 28.8505L84.6682 17.1487H80.5887L73.9326 31.47V17.1487H69.0586V50.15H73.9326V40.2303L76.1441 35.4422L78.6992 43.9448L81.9628 37.9329L79.2574 28.8505H79.2145Z" fill="#155BFB"/>
<path d="M115.417 17.1487H114.343H102.062H100.988V21.8724V22.0012H105.776V41.3683L110.629 50.1715V22.0012H115.417V17.1487Z" fill="#155BFB"/>
</svg>
